<svg width="500" height="500" viewBox="0 0 500 500" fill="none" xmlns="http://www.w3.org/2000/svg">
<circle cx="125" cy="307" r="90" fill="white"/>
<circle cx="375" cy="307" r="90" fill="white"/>
<path d="M187.082 100.892C188.916 98.4036 190 95.3284 190 92C190 83.7157 183.284 77 175 77C166.716 77 160 83.7157 160 92C160 95.3284 161.084 98.4036 162.918 100.892C162.576 101.012 162.255 101.209 161.982 101.482L154.482 108.982C153.506 109.959 153.506 111.541 154.482 112.518C155.458 113.494 157.042 113.494 158.018 112.518L165.518 105.018C165.791 104.744 165.988 104.424 166.108 104.082C167.96 105.447 170.136 106.396 172.5 106.793V115.438C172.5 116.818 173.619 117.938 175 117.938C176.381 117.938 177.5 116.818 177.5 115.438V106.793C179.864 106.396 182.04 105.447 183.892 104.082C184.012 104.424 184.209 104.744 184.482 105.018L191.982 112.518C192.958 113.494 194.542 113.494 195.518 112.518C196.494 111.541 196.494 109.959 195.518 108.982L188.018 101.482C187.745 101.209 187.424 101.012 187.082 100.892Z" fill="url(#paint0_linear_15_188)"/>
<path d="M150.518 116.482C151.494 117.459 151.494 119.041 150.518 120.018L143.018 127.518C142.042 128.494 140.458 128.494 139.482 127.518C138.506 126.541 138.506 124.959 139.482 123.982L146.982 116.482C147.958 115.506 149.542 115.506 150.518 116.482Z" fill="url(#paint1_linear_15_188)"/>
<path d="M135.518 131.482C136.494 132.459 136.494 134.041 135.518 135.018L128.018 142.518C127.042 143.494 125.458 143.494 124.482 142.518C123.506 141.541 123.506 139.959 124.482 138.982L131.982 131.482C132.958 130.506 134.542 130.506 135.518 131.482Z" fill="url(#paint2_linear_15_188)"/>
<path d="M120.518 146.482C121.494 147.459 121.494 149.041 120.518 150.018L113.018 157.518C112.744 157.791 112.424 157.988 112.082 158.108C113.916 160.596 115 163.672 115 167C115 175.284 108.284 182 100 182C91.7157 182 85 175.284 85 167C85 158.716 91.7157 152 100 152C103.328 152 106.404 153.084 108.892 154.918C109.012 154.576 109.209 154.256 109.482 153.982L116.982 146.482C117.958 145.506 119.542 145.506 120.518 146.482Z" fill="url(#paint3_linear_15_188)"/>
<path d="M199.482 116.482C200.458 115.506 202.042 115.506 203.018 116.482L210.518 123.982C211.494 124.959 211.494 126.541 210.518 127.518C209.542 128.494 207.958 128.494 206.982 127.518L199.482 120.018C198.506 119.041 198.506 117.459 199.482 116.482Z" fill="url(#paint4_linear_15_188)"/>
<path d="M214.482 131.482C215.458 130.506 217.042 130.506 218.018 131.482L225.518 138.982C226.494 139.959 226.494 141.541 225.518 142.518C224.542 143.494 222.958 143.494 221.982 142.518L214.482 135.018C213.506 134.041 213.506 132.459 214.482 131.482Z" fill="url(#paint5_linear_15_188)"/>
<path d="M229.482 146.482C230.458 145.506 232.042 145.506 233.018 146.482L234.178 147.643C238.488 144.116 243.997 142 250 142C256.003 142 261.512 144.116 265.822 147.643L266.982 146.482C267.958 145.506 269.542 145.506 270.518 146.482C271.494 147.459 271.494 149.041 270.518 150.018L269.357 151.178C272.884 155.488 275 160.997 275 167C275 180.807 263.807 192 250 192C236.193 192 225 180.807 225 167C225 160.997 227.116 155.488 230.643 151.178L229.482 150.018C228.506 149.041 228.506 147.459 229.482 146.482Z" fill="url(#paint6_linear_15_188)"/>
<path d="M177.5 134.188V124.812C177.5 123.432 176.381 122.312 175 122.312C173.619 122.312 172.5 123.432 172.5 124.812V134.188C172.5 135.568 173.619 136.688 175 136.688C176.381 136.688 177.5 135.568 177.5 134.188Z" fill="url(#paint7_linear_15_188)"/>
<path d="M177.5 152.938V143.562C177.5 142.182 176.381 141.062 175 141.062C173.619 141.062 172.5 142.182 172.5 143.562V152.938C172.5 154.318 173.619 155.438 175 155.438C176.381 155.438 177.5 154.318 177.5 152.938Z" fill="url(#paint8_linear_15_188)"/>
<path d="M310 92C310 95.3284 311.084 98.4036 312.918 100.892C312.576 101.012 312.255 101.209 311.982 101.482L304.482 108.982C303.506 109.959 303.506 111.541 304.482 112.518C305.458 113.494 307.042 113.494 308.018 112.518L315.518 105.018C315.791 104.744 315.988 104.424 316.108 104.082C317.96 105.447 320.136 106.396 322.5 106.793V115.438C322.5 116.818 323.619 117.938 325 117.938C326.381 117.938 327.5 116.818 327.5 115.438V106.793C329.864 106.396 332.04 105.447 333.892 104.082C334.012 104.424 334.209 104.744 334.482 105.018L341.982 112.518C342.958 113.494 344.542 113.494 345.518 112.518C346.494 111.541 346.494 109.959 345.518 108.982L338.018 101.482C337.745 101.209 337.424 101.012 337.082 100.892C338.916 98.4036 340 95.3284 340 92C340 83.7157 333.284 77 325 77C316.716 77 310 83.7157 310 92Z" fill="url(#paint9_linear_15_188)"/>
<path d="M300.518 116.482C301.494 117.459 301.494 119.041 300.518 120.018L293.018 127.518C292.042 128.494 290.458 128.494 289.482 127.518C288.506 126.541 288.506 124.959 289.482 123.982L296.982 116.482C297.958 115.506 299.542 115.506 300.518 116.482Z" fill="url(#paint10_linear_15_188)"/>
<path d="M285.518 131.482C286.494 132.459 286.494 134.041 285.518 135.018L278.018 142.518C277.042 143.494 275.458 143.494 274.482 142.518C273.506 141.541 273.506 139.959 274.482 138.982L281.982 131.482C282.958 130.506 284.542 130.506 285.518 131.482Z" fill="url(#paint11_linear_15_188)"/>
<path d="M353.018 116.482C352.042 115.506 350.458 115.506 349.482 116.482C348.506 117.459 348.506 119.041 349.482 120.018L356.982 127.518C357.958 128.494 359.542 128.494 360.518 127.518C361.494 126.541 361.494 124.959 360.518 123.982L353.018 116.482Z" fill="url(#paint12_linear_15_188)"/>
<path d="M368.018 131.482C367.042 130.506 365.458 130.506 364.482 131.482C363.506 132.459 363.506 134.041 364.482 135.018L371.982 142.518C372.958 143.494 374.542 143.494 375.518 142.518C376.494 141.541 376.494 139.959 375.518 138.982L368.018 131.482Z" fill="url(#paint13_linear_15_188)"/>
<path d="M383.018 146.482C382.042 145.506 380.458 145.506 379.482 146.482C378.506 147.459 378.506 149.041 379.482 150.018L386.982 157.518C387.256 157.791 387.577 157.988 387.918 158.108C386.084 160.596 385 163.672 385 167C385 175.284 391.716 182 400 182C408.284 182 415 175.284 415 167C415 158.716 408.284 152 400 152C396.672 152 393.596 153.084 391.108 154.918C390.988 154.577 390.791 154.256 390.518 153.982L383.018 146.482Z" fill="url(#paint14_linear_15_188)"/>
<path d="M327.5 124.812V134.188C327.5 135.568 326.381 136.688 325 136.688C323.619 136.688 322.5 135.568 322.5 134.188V124.812C322.5 123.432 323.619 122.312 325 122.312C326.381 122.312 327.5 123.432 327.5 124.812Z" fill="url(#paint15_linear_15_188)"/>
<path d="M327.5 143.562V152.938C327.5 154.318 326.381 155.438 325 155.438C323.619 155.438 322.5 154.318 322.5 152.938V143.562C322.5 142.182 323.619 141.062 325 141.062C326.381 141.062 327.5 142.182 327.5 143.562Z" fill="url(#paint16_linear_15_188)"/>
<path d="M185 167C185 172.523 180.523 177 175 177C169.477 177 165 172.523 165 167C165 161.477 169.477 157 175 157C180.523 157 185 161.477 185 167Z" fill="url(#paint17_linear_15_188)"/>
<path d="M335 167C335 172.523 330.523 177 325 177C319.477 177 315 172.523 315 167C315 161.477 319.477 157 325 157C330.523 157 335 161.477 335 167Z" fill="url(#paint18_linear_15_188)"/>
<path d="M194.177 290.945C181.824 270.03 159.05 256 133 256C93.7878 256 62 287.788 62 327C62 332.521 62.6302 337.896 63.8228 343.055C57.5814 332.487 54 320.162 54 307C54 267.788 85.7878 236 125 236C158.691 236 186.901 259.466 194.177 290.945Z" fill="url(#paint19_linear_15_188)"/>
<path d="M444.177 290.945C431.824 270.03 409.05 256 383 256C343.788 256 312 287.788 312 327C312 332.521 312.63 337.896 313.823 343.055C307.581 332.487 304 320.162 304 307C304 267.788 335.788 236 375 236C408.691 236 436.901 259.466 444.177 290.945Z" fill="url(#paint20_linear_15_188)"/>
<path fill-rule="evenodd" clip-rule="evenodd" d="M249.5 347C263.333 347 270.752 358.055 278.156 369.088L278.207 369.165L278.233 369.204C278.568 369.703 278.903 370.202 279.239 370.7C300 401.5 335.047 422 375 422C438.513 422 490 370.513 490 307C490 243.487 438.513 192 375 192C335.047 192 299.5 212.5 279.239 243.3L278.699 244.122C271.229 255.49 263.666 267 249.5 267C236.518 267 229.931 257.074 223.017 246.656C221.823 244.856 220.618 243.041 219.369 241.26C198.5 211.5 164.068 192 125 192C61.4872 192 10 243.487 10 307C10 370.513 61.4872 422 125 422C164.068 422 198.5 402.5 219.369 372.74C220.618 370.959 221.823 369.144 223.017 367.344C229.931 356.926 236.518 347 249.5 347ZM215 307C215 356.706 174.706 397 125 397C75.2944 397 35 356.706 35 307C35 257.294 75.2944 217 125 217C174.706 217 215 257.294 215 307ZM375 397C424.706 397 465 356.706 465 307C465 257.294 424.706 217 375 217C325.294 217 285 257.294 285 307C285 356.706 325.294 397 375 397Z" fill="url(#paint21_linear_15_188)"/>
<defs>
<linearGradient id="paint0_linear_15_188" x1="250" y1="77" x2="250" y2="422" gradientUnits="userSpaceOnUse">
<stop stop-color="#027DFD"/>
<stop offset="1" stop-color="#042B59"/>
</linearGradient>
<linearGradient id="paint1_linear_15_188" x1="250" y1="77" x2="250" y2="422" gradientUnits="userSpaceOnUse">
<stop stop-color="#027DFD"/>
<stop offset="1" stop-color="#042B59"/>
</linearGradient>
<linearGradient id="paint2_linear_15_188" x1="250" y1="77" x2="250" y2="422" gradientUnits="userSpaceOnUse">
<stop stop-color="#027DFD"/>
<stop offset="1" stop-color="#042B59"/>
</linearGradient>
<linearGradient id="paint3_linear_15_188" x1="250" y1="77" x2="250" y2="422" gradientUnits="userSpaceOnUse">
<stop stop-color="#027DFD"/>
<stop offset="1" stop-color="#042B59"/>
</linearGradient>
<linearGradient id="paint4_linear_15_188" x1="250" y1="77" x2="250" y2="422" gradientUnits="userSpaceOnUse">
<stop stop-color="#027DFD"/>
<stop offset="1" stop-color="#042B59"/>
</linearGradient>
<linearGradient id="paint5_linear_15_188" x1="250" y1="77" x2="250" y2="422" gradientUnits="userSpaceOnUse">
<stop stop-color="#027DFD"/>
<stop offset="1" stop-color="#042B59"/>
</linearGradient>
<linearGradient id="paint6_linear_15_188" x1="250" y1="77" x2="250" y2="422" gradientUnits="userSpaceOnUse">
<stop stop-color="#027DFD"/>
<stop offset="1" stop-color="#042B59"/>
</linearGradient>
<linearGradient id="paint7_linear_15_188" x1="250" y1="77" x2="250" y2="422" gradientUnits="userSpaceOnUse">
<stop stop-color="#027DFD"/>
<stop offset="1" stop-color="#042B59"/>
</linearGradient>
<linearGradient id="paint8_linear_15_188" x1="250" y1="77" x2="250" y2="422" gradientUnits="userSpaceOnUse">
<stop stop-color="#027DFD"/>
<stop offset="1" stop-color="#042B59"/>
</linearGradient>
<linearGradient id="paint9_linear_15_188" x1="250" y1="77" x2="250" y2="422" gradientUnits="userSpaceOnUse">
<stop stop-color="#027DFD"/>
<stop offset="1" stop-color="#042B59"/>
</linearGradient>
<linearGradient id="paint10_linear_15_188" x1="250" y1="77" x2="250" y2="422" gradientUnits="userSpaceOnUse">
<stop stop-color="#027DFD"/>
<stop offset="1" stop-color="#042B59"/>
</linearGradient>
<linearGradient id="paint11_linear_15_188" x1="250" y1="77" x2="250" y2="422" gradientUnits="userSpaceOnUse">
<stop stop-color="#027DFD"/>
<stop offset="1" stop-color="#042B59"/>
</linearGradient>
<linearGradient id="paint12_linear_15_188" x1="250" y1="77" x2="250" y2="422" gradientUnits="userSpaceOnUse">
<stop stop-color="#027DFD"/>
<stop offset="1" stop-color="#042B59"/>
</linearGradient>
<linearGradient id="paint13_linear_15_188" x1="250" y1="77" x2="250" y2="422" gradientUnits="userSpaceOnUse">
<stop stop-color="#027DFD"/>
<stop offset="1" stop-color="#042B59"/>
</linearGradient>
<linearGradient id="paint14_linear_15_188" x1="250" y1="77" x2="250" y2="422" gradientUnits="userSpaceOnUse">
<stop stop-color="#027DFD"/>
<stop offset="1" stop-color="#042B59"/>
</linearGradient>
<linearGradient id="paint15_linear_15_188" x1="250" y1="77" x2="250" y2="422" gradientUnits="userSpaceOnUse">
<stop stop-color="#027DFD"/>
<stop offset="1" stop-color="#042B59"/>
</linearGradient>
<linearGradient id="paint16_linear_15_188" x1="250" y1="77" x2="250" y2="422" gradientUnits="userSpaceOnUse">
<stop stop-color="#027DFD"/>
<stop offset="1" stop-color="#042B59"/>
</linearGradient>
<linearGradient id="paint17_linear_15_188" x1="250" y1="77" x2="250" y2="422" gradientUnits="userSpaceOnUse">
<stop stop-color="#027DFD"/>
<stop offset="1" stop-color="#042B59"/>
</linearGradient>
<linearGradient id="paint18_linear_15_188" x1="250" y1="77" x2="250" y2="422" gradientUnits="userSpaceOnUse">
<stop stop-color="#027DFD"/>
<stop offset="1" stop-color="#042B59"/>
</linearGradient>
<linearGradient id="paint19_linear_15_188" x1="250" y1="77" x2="250" y2="422" gradientUnits="userSpaceOnUse">
<stop stop-color="#027DFD"/>
<stop offset="1" stop-color="#042B59"/>
</linearGradient>
<linearGradient id="paint20_linear_15_188" x1="250" y1="77" x2="250" y2="422" gradientUnits="userSpaceOnUse">
<stop stop-color="#027DFD"/>
<stop offset="1" stop-color="#042B59"/>
</linearGradient>
<linearGradient id="paint21_linear_15_188" x1="250" y1="77" x2="250" y2="422" gradientUnits="userSpaceOnUse">
<stop stop-color="#027DFD"/>
<stop offset="1" stop-color="#042B59"/>
</linearGradient>
</defs>
</svg>
