<svg width="1600" height="900" viewBox="0 0 1600 900" fill="none" xmlns="http://www.w3.org/2000/svg">
<g clip-path="url(#clip0_2_115)">
<path d="M1600 0H0V900H1600V0Z" fill="#12202F"/>
<path d="M759.8 366.1C736.5 366.1 717.6 385.1 717.6 408.3C717.6 431.5 736.6 450.5 759.8 450.5C783 450.5 802 431.5 802 408.3C802 385.1 783.1 366.1 759.8 366.1ZM759.8 448.6C737.6 448.6 719.6 430.5 719.6 408.4C719.6 386.3 737.7 368.2 759.8 368.2C781.9 368.2 800 386.3 800 408.4C800 430.5 782 448.6 759.8 448.6Z" fill="#243240"/>
<path d="M758.8 407.9L734.3 431.9L735.7 433.3L760.8 408.8V377.3H758.8V407.9Z" fill="#243240"/>
<path d="M375.625 706.223L367.14 714.708L375.625 723.193L384.11 714.708L375.625 706.223Z" fill="#243240"/>
<path d="M638.2 714.7L648.8 725.3L659.4 714.7L648.8 704.1L638.2 714.7ZM648.8 721L642.5 714.7L648.8 708.4L655.1 714.7L648.8 721Z" fill="#243240"/>
<path d="M638.2 737.4L648.8 748L659.4 737.4L648.8 726.8L638.2 737.4ZM648.8 743.7L642.5 737.4L648.8 731.1L655.1 737.4L648.8 743.7Z" fill="#243240"/>
<path d="M638.2 760.1L648.8 770.7L659.4 760.1L648.8 749.5L638.2 760.1ZM648.8 766.4L642.5 760.1L648.8 753.8L655.1 760.1L648.8 766.4Z" fill="#243240"/>
<path d="M638.2 782.7L648.8 793.3L659.4 782.7L648.8 772.1L638.2 782.7ZM648.8 789.1L642.5 782.8L648.8 776.5L655.1 782.8L648.8 789.1Z" fill="#243240"/>
<path d="M638.2 805.4L648.8 816L659.4 805.4L648.8 794.8L638.2 805.4ZM648.8 811.8L642.5 805.5L648.8 799.2L655.1 805.5L648.8 811.8Z" fill="#243240"/>
<path d="M551.7 713.2H394.8V716.2H551.7V806.9H627.3V803.9H554.7V784.2H627.3V781.2H554.7V761.6H627.3V758.6H554.7V738.9H627.3V735.9H554.7V716.2H627.3V713.2H553.2H551.7Z" fill="#243240"/>
<path d="M410.1 232.7C433.4 232.7 452.3 213.7 452.3 190.5C452.3 167.3 433.3 148.3 410.1 148.3C386.9 148.3 367.9 167.3 367.9 190.5C367.9 213.7 386.8 232.7 410.1 232.7ZM410.1 150.2C432.3 150.2 450.3 168.3 450.3 190.4C450.3 212.5 432.2 230.6 410.1 230.6C388 230.6 369.9 212.5 369.9 190.4C369.9 168.3 387.9 150.2 410.1 150.2Z" fill="#243240"/>
<path d="M421.7 183.5L420.3 182.1L405.7 196.6L400 190.9L398.6 192.3L405.7 199.5L421.7 183.5Z" fill="#243240"/>
<path d="M380.622 97.2644C386.128 96.3708 389.867 91.1828 388.973 85.6767C388.08 80.1706 382.892 76.4314 377.386 77.325C371.88 78.2186 368.14 83.4066 369.034 88.9128C369.928 94.4189 375.116 98.1581 380.622 97.2644Z" fill="#243240"/>
<path d="M413 98.5C419.1 98.5 424.1 93.5 424.1 87.4C424.1 81.3 419.1 76.3 413 76.3C406.9 76.3 401.9 81.3 401.9 87.4C401.9 93.5 406.8 98.5 413 98.5ZM413 78.2C418 78.2 422.1 82.3 422.1 87.3C422.1 92.3 418 96.4 413 96.4C408 96.4 403.9 92.3 403.9 87.3C403.9 82.3 407.9 78.2 413 78.2Z" fill="#243240"/>
<path d="M800.1 86.3H440.1V88.3H800.1V97.5H802.1V77.2H800.1V86.3Z" fill="#243240"/>
<path d="M500.1 320.8H802.1V162.5H500.1V320.8ZM653.2 241.7L800 165.2V318.2L653.2 241.7ZM797 318.8H505.2L651.1 242.8L797 318.8ZM651.1 240.5L505.2 164.5H797L651.1 240.5ZM648.9 241.7L502.1 318.2V165.2L648.9 241.7Z" fill="#243240"/>
<path d="M799.3 580.4C787.5 580.4 781.3 559.8 775.3 539.9C769 519.3 762.6 498 749.3 498C736.1 498 729.6 519.3 723.3 539.9C717.3 559.8 711 580.4 699.3 580.4C687.6 580.4 681.3 559.8 675.3 539.9C669 519.3 662.6 498 649.3 498C636.1 498 629.6 519.3 623.3 539.9C617.3 559.8 611 580.4 599.3 580.4C587.5 580.4 581.3 559.8 575.3 539.9C569 519.3 562.6 498 549.3 498C536 498 529.6 519.3 523.3 539.9C517.3 559.8 511 580.4 499.3 580.4V582.4C512.5 582.4 519 561.1 525.3 540.5C531.3 520.6 537.6 500 549.3 500C561 500 567.3 520.6 573.3 540.5C579.6 561.1 586 582.4 599.3 582.4C612.5 582.4 619 561.1 625.3 540.5C631.3 520.6 637.6 500 649.3 500C661.1 500 667.3 520.6 673.3 540.5C679.6 561.1 686 582.4 699.3 582.4C712.6 582.4 719 561.1 725.3 540.5C731.3 520.6 737.6 500 749.3 500C761 500 767.3 520.6 773.3 540.5C779.6 561.1 786 582.4 799.3 582.4V580.4Z" fill="#243240"/>
<path d="M598.1 654.9L607.2 664L616.3 654.9L607.2 645.8L598.1 654.9ZM607.2 659.8L602.4 655L607.2 650.2L612 655L607.2 659.8Z" fill="#243240"/>
<path d="M790.176 645.882L781.125 654.933L790.176 663.983L799.226 654.933L790.176 645.882Z" fill="#243240"/>
<path d="M766.3 653.4H626.8V656.4H766.3V653.4Z" fill="#243240"/>
<path d="M380.9 369.6H368.9V381.6H380.9V369.6Z" fill="#243240"/>
<path d="M399.405 367.083L390.92 375.568L399.405 384.054L407.89 375.568L399.405 367.083Z" fill="#243240"/>
<path d="M423.9 369.2L416.5 382H431.3L423.9 369.2Z" fill="#243240"/>
<path d="M441.7 375.6C441.7 379.3 444.7 382.3 448.4 382.3C452.1 382.3 455.1 379.3 455.1 375.6C455.1 371.9 452.1 368.9 448.4 368.9C444.7 368.9 441.7 371.9 441.7 375.6Z" fill="#243240"/>
<path d="M608.3 443C604.1 443 600.6 446.4 600.6 450.7C600.6 455 604 458.4 608.3 458.4C612.6 458.4 616 455 616 450.7C616 446.4 612.5 443 608.3 443ZM608.3 456.3C605.2 456.3 602.6 453.8 602.6 450.6C602.6 447.4 605.1 444.9 608.3 444.9C611.5 444.9 614 447.4 614 450.6C614 453.8 611.4 456.3 608.3 456.3Z" fill="#243240"/>
<path d="M469.3 376.6H607.3V434.8H609.3V374.6H469.3V376.6Z" fill="#243240"/>
<path d="M1215.8 382.6H1227.1V370.9H1215.8V382.6ZM1217.8 372.8H1225.1V380.5H1217.8V372.8Z" fill="#243240"/>
<path d="M1198.6 370.8H1187.3V382.5H1198.6V370.8ZM1196.6 380.6H1189.3V372.9H1196.6V380.6Z" fill="#243240"/>
<path d="M1170.1 370.8H1158.8V382.5H1170.1V370.8ZM1168.1 380.6H1160.8V372.9H1168.1V380.6Z" fill="#243240"/>
<path d="M1130.4 382.6H1141.7V370.9H1130.4V382.6ZM1132.4 372.8H1139.7V380.5H1132.4V372.8Z" fill="#243240"/>
<path d="M1137.1 397.7H1135.1V471.4H1220.5V665H1222.5V470.4V469.4V397.7H1220.5V469.4H1194V397.7H1192V469.4H1165.5V397.7H1163.5V469.4H1137.1V397.7Z" fill="#243240"/>
<path d="M1221.5 690.4C1225.37 690.4 1228.5 687.266 1228.5 683.4C1228.5 679.534 1225.37 676.4 1221.5 676.4C1217.63 676.4 1214.5 679.534 1214.5 683.4C1214.5 687.266 1217.63 690.4 1221.5 690.4Z" fill="#243240"/>
<path d="M443.2 442.9H366.2V485H443.2V442.9ZM441.2 483H368.2V444.9H441.2V483Z" fill="#243240"/>
<path d="M443.2 499.5H366.2V541.6H443.2V499.5ZM441.2 539.7H368.2V501.6H441.2V539.7Z" fill="#243240"/>
<path d="M443.2 556.2H366.2V598.3H443.2V556.2ZM441.2 596.3H368.2V558.2H441.2V596.3Z" fill="#243240"/>
<path d="M404.7 471.4C408.842 471.4 412.2 468.042 412.2 463.9C412.2 459.758 408.842 456.4 404.7 456.4C400.558 456.4 397.2 459.758 397.2 463.9C397.2 468.042 400.558 471.4 404.7 471.4Z" fill="#243240"/>
<path d="M793.2 730.3H767.1V721.5H774.2V705.4H758.1V721.5H765.2V730.3H739.1V741.1H732V757.2H748.1V741.1H741V732.3H765.1V741.1H758V757.2H774.1V741.1H767V732.3H791.1V741.1H784V757.2H800.1V741.1H793V730.3H793.2ZM760.1 707.4H772.2V719.5H760.1V707.4ZM746.2 755.2H734.1V743.1H746.2V755.2ZM772.2 755.2H760.1V743.1H772.2V755.2ZM798.3 755.2H786.2V743.1H798.3V755.2Z" fill="#243240"/>
<path d="M400.2 671.5H367.2V673.5H400.2V671.5Z" fill="#243240"/>
<path d="M382.7 628.6V659.1L370.6 647L369.1 648.4L383.7 663L398.2 648.4L396.8 647L384.7 659.1V628.6H382.7Z" fill="#243240"/>
<path d="M914.2 183.4L964.8 151.8L947.1 140.7L964.8 129.6L947.1 118.5L964.8 107.4L914.2 76L863.6 107.6L881.3 118.7L863.6 129.8L881.3 140.9L863.6 152L914.2 183.4ZM914.2 78.4L961.1 107.6L914.2 136.8L867.3 107.6L914.2 78.4ZM883.2 119.8L914.2 139.1L945.2 119.8L961 129.7L914.1 158.9L867.2 129.7L883.2 119.8ZM914.2 161.3L945.2 142L961 151.9L914.2 181L867.3 151.8L883.1 141.9L914.2 161.3Z" fill="#243240"/>
<path d="M885.4 409L884 407.5L872.7 418.8V375.6H870.7V418.8L859.5 407.5L858.1 409L871.7 422.6L885.4 409Z" fill="#243240"/>
<path d="M906.6 421.2V378L917.9 389.3L919.3 387.8L905.6 374.2L891.9 387.8L893.3 389.3L904.6 378V421.2H906.6Z" fill="#243240"/>
<path d="M1027.6 371.8H1043.7L1012.9 402.7L1014.3 404.1L1045.2 373.3V389.4H1047.2V369.8H1027.6V371.8Z" fill="#243240"/>
<path d="M1045.2 422.3H994.7V371.8H1006.6V369.8H992.7V424.3H1047.2V409.8H1045.2V422.3Z" fill="#243240"/>
<path d="M1026.1 463.8H878.4C867 463.8 857.8 473.1 857.8 484.4V803.4C857.8 814.8 867.1 824 878.4 824H1026.1C1037.5 824 1046.7 814.7 1046.7 803.4V484.4C1046.7 473 1037.5 463.8 1026.1 463.8ZM859.8 493.2L950.6 645.8L860.1 798.8H859.7V493.2H859.8ZM951.8 647.8L1041.7 798.8H862.5L951.8 647.8ZM1043.9 798.8L952.9 645.8L1044.5 490.8H1044.7V798.7H1043.9V798.8ZM951.7 643.9L860.6 490.9H1042.1L951.7 643.9ZM1026.1 822H878.4C868.1 822 859.8 813.6 859.8 803.4V800.9H1044.8V803.4C1044.7 813.6 1036.4 822 1026.1 822ZM1044.7 488.9H859.7V484.4C859.7 474.1 868.1 465.8 878.3 465.8H1026C1036.3 465.8 1044.6 474.2 1044.6 484.4V488.9H1044.7Z" fill="#243240"/>
<path d="M1000.9 321.9H1095V227.8H1000.9V321.9ZM1002.9 229.7H1093V319.8H1002.9V229.7Z" fill="#243240"/>
<path d="M914.2 226.5L859 322.1H969.4L914.2 226.5ZM914.2 230.5L966 320.1H862.4L914.2 230.5Z" fill="#243240"/>
<path d="M1181.7 224.1C1153 224.1 1129.6 247.5 1129.6 276.2C1129.6 304.9 1153 328.3 1181.7 328.3C1210.4 328.3 1233.8 304.9 1233.8 276.2C1233.8 247.5 1210.5 224.1 1181.7 224.1ZM1181.7 326.3C1154.1 326.3 1131.6 303.8 1131.6 276.2C1131.6 248.6 1154.1 226.1 1181.7 226.1C1209.3 226.1 1231.8 248.6 1231.8 276.2C1231.8 303.8 1209.4 326.3 1181.7 326.3Z" fill="#243240"/>
<path d="M1190.1 85.4C1187.2 85.4 1184.9 87.7 1184.9 90.6C1184.9 93.5 1187.2 95.8 1190.1 95.8C1193 95.8 1195.3 93.5 1195.3 90.6C1195.4 87.7 1193 85.4 1190.1 85.4ZM1190.1 93.9C1188.3 93.9 1186.9 92.4 1186.9 90.7C1186.9 89 1188.4 87.5 1190.1 87.5C1191.8 87.5 1193.3 89 1193.3 90.7C1193.3 92.4 1191.9 93.9 1190.1 93.9Z" fill="#243240"/>
<path d="M1190.1 110.4C1187.2 110.4 1184.9 112.7 1184.9 115.6C1184.9 118.5 1187.2 120.8 1190.1 120.8C1193 120.8 1195.3 118.5 1195.3 115.6C1195.4 112.7 1193 110.4 1190.1 110.4ZM1190.1 118.9C1188.3 118.9 1186.9 117.4 1186.9 115.7C1186.9 114 1188.4 112.5 1190.1 112.5C1191.8 112.5 1193.3 114 1193.3 115.7C1193.3 117.4 1191.9 118.9 1190.1 118.9Z" fill="#243240"/>
<path d="M1190.1 135.4C1187.2 135.4 1184.9 137.7 1184.9 140.6C1184.9 143.5 1187.2 145.8 1190.1 145.8C1193 145.8 1195.3 143.5 1195.3 140.6C1195.4 137.7 1193 135.4 1190.1 135.4ZM1190.1 143.9C1188.3 143.9 1186.9 142.4 1186.9 140.7C1186.9 139 1188.4 137.5 1190.1 137.5C1191.8 137.5 1193.3 139 1193.3 140.7C1193.3 142.4 1191.9 143.9 1190.1 143.9Z" fill="#243240"/>
<path d="M1145.6 177.7H1086.2V179.7H1145.6V177.7Z" fill="#243240"/>
<path d="M1232.8 177.7H1173.4V179.7H1232.8V177.7Z" fill="#243240"/>
<path d="M1151.7 178.7C1151.7 183 1155.2 186.5 1159.5 186.5C1163.8 186.5 1167.3 183 1167.3 178.7C1167.3 174.4 1163.8 170.9 1159.5 170.9C1155.2 170.9 1151.7 174.4 1151.7 178.7ZM1165.2 178.7C1165.2 181.9 1162.6 184.5 1159.4 184.5C1156.2 184.5 1153.6 181.9 1153.6 178.7C1153.6 175.5 1156.2 172.9 1159.4 172.9C1162.6 172.9 1165.2 175.5 1165.2 178.7Z" fill="#243240"/>
<path d="M1158.5 164.5H1160.5V154.2H1202.2V129.2V127.2V104.2V102.2V77.2H1116.9V102.2V104.2V127.2V129.2V154.2H1158.6V164.5H1158.5ZM1118.8 79.1H1200.1V102.1H1118.8V79.1ZM1118.8 104.1H1200.1V127.1H1118.8V104.1ZM1118.8 129.1H1200.1V152.1H1118.8V129.1Z" fill="#243240"/>
<path d="M1130.2 784.7V775.7C1130.2 751.8 1149.6 732.4 1173.5 732.4C1181.3 732.4 1188.9 734.5 1195.6 738.5L1196.6 736.8C1189.6 732.7 1181.6 730.5 1173.5 730.5C1148.5 730.5 1128.2 750.8 1128.2 775.8V784.5L1113.8 770.1L1112.4 771.5L1129.3 788.4L1145.9 771.8L1144.5 770.4L1130.2 784.7Z" fill="#243240"/>
<path d="M1200 778.5L1201.4 779.9L1215.8 765.5V774.5C1215.8 798.4 1196.4 817.8 1172.5 817.8C1164.7 817.8 1157.1 815.7 1150.4 811.7L1149.4 813.4C1156.4 817.5 1164.4 819.7 1172.5 819.7C1197.5 819.7 1217.8 799.4 1217.8 774.4V765.7L1232.2 780.1L1233.6 778.7L1216.7 761.8L1200 778.5Z" fill="#243240"/>
<path d="M371.7 293.8L370.3 295.2L379.9 304.8L370.3 314.4L371.7 315.8L382.7 304.8L371.7 293.8Z" fill="#243240"/>
<path d="M419 320.6H389.7V322.6H419V320.6Z" fill="#243240"/>
<path d="M294.2 382.6H305.5V370.9H294.2V382.6ZM296.2 372.8H303.5V380.5H296.2V372.8Z" fill="#243240"/>
<path d="M277 370.8H265.7V382.5H277V370.8ZM275 380.6H267.7V372.9H275V380.6Z" fill="#243240"/>
<path d="M248.5 370.8H237.2V382.5H248.5V370.8ZM246.5 380.6H239.2V372.9H246.5V380.6Z" fill="#243240"/>
<path d="M208.8 382.6H220.1V370.9H208.8V382.6ZM210.8 372.8H218.1V380.5H210.8V372.8Z" fill="#243240"/>
<path d="M215.4 397.7H213.4V471.4H298.8V665H300.8V470.4V469.4V397.7H298.8V469.4H272.4V397.7H270.4V469.4H243.9V397.7H241.9V469.4H215.4V397.7Z" fill="#243240"/>
<path d="M306.272 686.151C307.751 682.58 306.055 678.485 302.483 677.005C298.911 675.526 294.816 677.222 293.337 680.794C291.857 684.365 293.554 688.46 297.125 689.94C300.697 691.419 304.792 689.723 306.272 686.151Z" fill="#243240"/>
<path d="M106 371.8H122.1L91.3 402.7L92.7 404.1L123.5 373.3V389.4H125.5V369.8H106V371.8Z" fill="#243240"/>
<path d="M123.5 422.3H73V371.8H85V369.8H71V424.3H125.5V409.8H123.5V422.3Z" fill="#243240"/>
<path d="M79.3 321.9H173.4V227.8H79.3V321.9ZM81.3 229.7H171.4V319.8H81.3V229.7Z" fill="#243240"/>
<path d="M260.1 224.1C231.4 224.1 208 247.5 208 276.2C208 304.9 231.4 328.3 260.1 328.3C288.8 328.3 312.2 304.9 312.2 276.2C312.2 247.5 288.8 224.1 260.1 224.1ZM260.1 326.3C232.5 326.3 210 303.8 210 276.2C210 248.6 232.5 226.1 260.1 226.1C287.7 226.1 310.2 248.6 310.2 276.2C310.2 303.8 287.7 326.3 260.1 326.3Z" fill="#243240"/>
<path d="M268.5 85.4C265.6 85.4 263.3 87.7 263.3 90.6C263.3 93.5 265.6 95.8 268.5 95.8C271.4 95.8 273.7 93.5 273.7 90.6C273.8 87.7 271.4 85.4 268.5 85.4ZM268.5 93.9C266.7 93.9 265.3 92.4 265.3 90.7C265.3 89 266.8 87.5 268.5 87.5C270.2 87.5 271.7 89 271.7 90.7C271.7 92.4 270.3 93.9 268.5 93.9Z" fill="#243240"/>
<path d="M268.5 110.4C265.6 110.4 263.3 112.7 263.3 115.6C263.3 118.5 265.6 120.8 268.5 120.8C271.4 120.8 273.7 118.5 273.7 115.6C273.8 112.7 271.4 110.4 268.5 110.4ZM268.5 118.9C266.7 118.9 265.3 117.4 265.3 115.7C265.3 114 266.8 112.5 268.5 112.5C270.2 112.5 271.7 114 271.7 115.7C271.7 117.4 270.3 118.9 268.5 118.9Z" fill="#243240"/>
<path d="M268.5 135.4C265.6 135.4 263.3 137.7 263.3 140.6C263.3 143.5 265.6 145.8 268.5 145.8C271.4 145.8 273.7 143.5 273.7 140.6C273.8 137.7 271.4 135.4 268.5 135.4ZM268.5 143.9C266.7 143.9 265.3 142.4 265.3 140.7C265.3 139 266.8 137.5 268.5 137.5C270.2 137.5 271.7 139 271.7 140.7C271.7 142.4 270.3 143.9 268.5 143.9Z" fill="#243240"/>
<path d="M223.9 177.7H164.5V179.7H223.9V177.7Z" fill="#243240"/>
<path d="M311.2 177.7H251.8V179.7H311.2V177.7Z" fill="#243240"/>
<path d="M230.1 178.7C230.1 183 233.6 186.5 237.9 186.5C242.2 186.5 245.7 183 245.7 178.7C245.7 174.4 242.2 170.9 237.9 170.9C233.6 170.9 230.1 174.4 230.1 178.7ZM243.6 178.7C243.6 181.9 241 184.5 237.8 184.5C234.6 184.5 232 181.9 232 178.7C232 175.5 234.6 172.9 237.8 172.9C241 172.9 243.6 175.5 243.6 178.7Z" fill="#243240"/>
<path d="M236.9 164.5H238.9V154.2H280.6V129.2V127.2V104.2V102.2V77.2H195.3V102.2V104.2V127.2V129.2V154.2H237V164.5H236.9ZM197.2 79.1H278.5V102.1H197.2V79.1ZM197.2 104.1H278.5V127.1H197.2V104.1ZM197.2 129.1H278.5V152.1H197.2V129.1Z" fill="#243240"/>
<path d="M208.6 784.7V775.7C208.6 751.8 228 732.4 251.9 732.4C259.7 732.4 267.3 734.5 274 738.5L275 736.8C268 732.7 260 730.5 251.9 730.5C226.9 730.5 206.6 750.8 206.6 775.8V784.5L192.2 770L190.8 771.4L207.7 788.3L224.3 771.7L222.9 770.3L208.6 784.7Z" fill="#243240"/>
<path d="M278.3 778.5L279.7 779.9L294.1 765.5V774.5C294.1 798.4 274.7 817.8 250.8 817.8C243 817.8 235.4 815.7 228.7 811.7L227.7 813.4C234.7 817.5 242.7 819.7 250.8 819.7C275.8 819.7 296.1 799.4 296.1 774.4V765.7L310.5 780.1L311.9 778.7L295 761.8L278.3 778.5Z" fill="#243240"/>
<path d="M1297.29 706.158L1288.81 714.643L1297.29 723.128L1305.78 714.643L1297.29 706.158Z" fill="#243240"/>
<path d="M1559.8 714.7L1570.4 725.3L1581 714.7L1570.4 704.1L1559.8 714.7ZM1570.4 721L1564.1 714.7L1570.4 708.4L1576.7 714.7L1570.4 721Z" fill="#243240"/>
<path d="M1559.8 737.4L1570.4 748L1581 737.4L1570.4 726.8L1559.8 737.4ZM1570.4 743.7L1564.1 737.4L1570.4 731.1L1576.7 737.4L1570.4 743.7Z" fill="#243240"/>
<path d="M1559.8 760.1L1570.4 770.7L1581 760.1L1570.4 749.5L1559.8 760.1ZM1570.4 766.4L1564.1 760.1L1570.4 753.8L1576.7 760.1L1570.4 766.4Z" fill="#243240"/>
<path d="M1559.8 782.7L1570.4 793.3L1581 782.7L1570.4 772.1L1559.8 782.7ZM1570.4 789.1L1564.1 782.8L1570.4 776.5L1576.7 782.8L1570.4 789.1Z" fill="#243240"/>
<path d="M1559.8 805.4L1570.4 816L1581 805.4L1570.4 794.8L1559.8 805.4ZM1570.4 811.8L1564.1 805.5L1570.4 799.2L1576.7 805.5L1570.4 811.8Z" fill="#243240"/>
<path d="M1473.3 713.2H1316.4V716.2H1473.3V806.9H1548.9V803.9H1476.3V784.2H1548.9V781.2H1476.3V761.6H1548.9V758.6H1476.3V738.9H1548.9V735.9H1476.3V716.2H1548.9V713.2H1474.8H1473.3Z" fill="#243240"/>
<path d="M1331.7 232.7C1355 232.7 1373.9 213.7 1373.9 190.5C1373.9 167.3 1354.9 148.3 1331.7 148.3C1308.5 148.3 1289.5 167.3 1289.5 190.5C1289.5 213.7 1308.4 232.7 1331.7 232.7ZM1331.7 150.2C1353.9 150.2 1371.9 168.3 1371.9 190.4C1371.9 212.5 1353.8 230.6 1331.7 230.6C1309.6 230.6 1291.5 212.5 1291.5 190.4C1291.5 168.3 1309.5 150.2 1331.7 150.2Z" fill="#243240"/>
<path d="M1343.3 183.5L1341.9 182.1L1327.3 196.6L1321.6 190.9L1320.2 192.3L1327.3 199.5L1343.3 183.5Z" fill="#243240"/>
<path d="M1300.6 97.4C1306.18 97.4 1310.7 92.8781 1310.7 87.3C1310.7 81.7219 1306.18 77.2 1300.6 77.2C1295.02 77.2 1290.5 81.7219 1290.5 87.3C1290.5 92.8781 1295.02 97.4 1300.6 97.4Z" fill="#243240"/>
<path d="M1334.6 98.5C1340.7 98.5 1345.7 93.5 1345.7 87.4C1345.7 81.3 1340.7 76.3 1334.6 76.3C1328.5 76.3 1323.5 81.3 1323.5 87.4C1323.5 93.5 1328.4 98.5 1334.6 98.5ZM1334.6 78.2C1339.6 78.2 1343.7 82.3 1343.7 87.3C1343.7 92.3 1339.6 96.4 1334.6 96.4C1329.6 96.4 1325.5 92.3 1325.5 87.3C1325.5 82.3 1329.5 78.2 1334.6 78.2Z" fill="#243240"/>
<path d="M1528.8 645.9L1519.7 655L1528.8 664.1L1537.9 655L1528.8 645.9ZM1523.9 654.9L1528.7 650.1L1533.5 654.9L1528.7 659.7L1523.9 654.9Z" fill="#243240"/>
<path d="M1302.5 369.6H1290.5V381.6H1302.5V369.6Z" fill="#243240"/>
<path d="M1321 367.101L1312.52 375.587L1321 384.072L1329.49 375.587L1321 367.101Z" fill="#243240"/>
<path d="M1345.5 369.2L1338.1 382H1352.9L1345.5 369.2Z" fill="#243240"/>
<path d="M1363.3 375.6C1363.3 379.3 1366.3 382.3 1370 382.3C1373.7 382.3 1376.7 379.3 1376.7 375.6C1376.7 371.9 1373.7 368.9 1370 368.9C1366.3 368.9 1363.3 371.9 1363.3 375.6Z" fill="#243240"/>
<path d="M1522.2 450.7C1522.2 454.9 1525.6 458.4 1529.9 458.4C1534.2 458.4 1537.6 455 1537.6 450.7C1537.6 446.4 1534.2 443 1529.9 443C1525.6 443 1522.2 446.4 1522.2 450.7ZM1535.5 450.7C1535.5 453.8 1533 456.4 1529.8 456.4C1526.6 456.4 1524.1 453.9 1524.1 450.7C1524.1 447.5 1526.6 445 1529.8 445C1533 445 1535.5 447.6 1535.5 450.7Z" fill="#243240"/>
<path d="M1390.9 376.6H1528.9V434.8H1530.9V374.6H1390.9V376.6Z" fill="#243240"/>
<path d="M1364.8 442.9H1287.8V485H1364.8V442.9ZM1362.8 483H1289.8V444.9H1362.8V483Z" fill="#243240"/>
<path d="M1364.8 499.5H1287.8V541.6H1364.8V499.5ZM1362.8 539.7H1289.8V501.6H1362.8V539.7Z" fill="#243240"/>
<path d="M1364.8 556.2H1287.8V598.3H1364.8V556.2ZM1362.8 596.3H1289.8V558.2H1362.8V596.3Z" fill="#243240"/>
<path d="M1326.3 471.4C1330.44 471.4 1333.8 468.042 1333.8 463.9C1333.8 459.758 1330.44 456.4 1326.3 456.4C1322.16 456.4 1318.8 459.758 1318.8 463.9C1318.8 468.042 1322.16 471.4 1326.3 471.4Z" fill="#243240"/>
<path d="M1321.8 671.5H1288.8V673.5H1321.8V671.5Z" fill="#243240"/>
<path d="M1304.3 628.6V659.1L1292.2 647L1290.8 648.4L1305.3 663L1319.8 648.4L1318.4 647L1306.3 659.1V628.6H1304.3Z" fill="#243240"/>
<path d="M1293.3 293.8L1291.9 295.2L1301.5 304.8L1291.9 314.4L1293.3 315.8L1304.3 304.8L1293.3 293.8Z" fill="#243240"/>
<path d="M1340.7 320.6H1311.4V322.6H1340.7V320.6Z" fill="#243240"/>
<path d="M25.5 118.6L43.2 107.6L0 80.6V83L39.4 107.6L0 132.2V134.5L23.6 119.8L39.4 129.7L0 154.3V156.6L23.6 141.9L39.4 151.8L0 176.4V178.7L43.2 151.8L25.5 140.7L43.2 129.7L25.5 118.6Z" fill="#243240"/>
<path d="M0 239.3V243.3L44.3 320.1H0V322.1H47.8L0 239.3Z" fill="#243240"/>
<path d="M104.5 463.8H0V465.8H104.5C114.8 465.8 123.1 474.2 123.1 484.4V488.9H0V490.9H120.6L30.1 643.9L0 593.3V597.2L29 645.9L0 694.9V698.8L30.1 647.8L119.9 798.8H0V800.8H123.1V803.3C123.1 813.6 114.7 821.9 104.5 821.9H0V823.9H104.5C115.9 823.9 125.1 814.6 125.1 803.3V484.3C125.1 473 115.9 463.8 104.5 463.8ZM123.1 798.8H122.3V798.7L31.3 645.8L122.9 490.8H123.1V798.8Z" fill="#243240"/>
<path d="M1600 653.4H1548.5V656.4H1600V653.4Z" fill="#243240"/>
<path d="M1600 550C1598.9 546.7 1597.9 543.3 1596.9 539.9C1590.6 519.3 1584.2 498 1570.9 498C1557.7 498 1551.2 519.3 1544.9 539.9C1538.9 559.8 1532.6 580.4 1520.9 580.4C1509.1 580.4 1502.9 559.8 1496.9 539.9C1490.6 519.3 1484.2 498 1470.9 498C1457.6 498 1451.2 519.3 1444.9 539.9C1438.9 559.8 1432.6 580.3 1420.9 580.3V582.3C1434.1 582.3 1440.6 561 1446.9 540.4C1452.9 520.5 1459.2 499.9 1470.9 499.9C1482.6 499.9 1488.9 520.5 1494.9 540.4C1501.2 561 1507.6 582.3 1520.9 582.3C1534.1 582.3 1540.6 561 1546.9 540.4C1552.9 520.5 1559.2 500 1570.9 500C1582.6 500 1588.9 520.6 1594.9 540.5C1596.5 545.8 1598.2 551.2 1599.9 556.3V550H1600Z" fill="#243240"/>
<path d="M1600 318.8H1426.8L1572.7 242.8L1600 257V254.7L1574.9 241.6L1600 228.5V226.2L1572.7 240.4L1426.8 164.4H1600V162.4H1421.7V320.7H1600V318.8ZM1423.7 165.2L1570.5 241.7L1423.7 318.2V165.2Z" fill="#243240"/>
<path d="M1600 86.3H1361.7V88.3H1600V86.3Z" fill="#243240"/>
</g>
<defs>
<clipPath id="clip0_2_115">
<rect width="1600" height="900" fill="white"/>
</clipPath>
</defs>
</svg>
